<svg width="297" height="377" viewBox="0 0 297 377" fill="none" xmlns="http://www.w3.org/2000/svg">
<g opacity="0.3">
<path fill-rule="evenodd" clip-rule="evenodd" d="M225.366 375.306C203.422 376.581 187.238 365.19 172.213 351.235C154.367 334.656 137.504 317.101 120.643 299.547C117.866 296.656 115.09 293.766 112.309 290.88C109.664 288.135 108.284 287.99 105.5 290.786C99.4612 296.85 93.3185 302.81 87.1757 308.77C81.1808 314.587 75.1859 320.404 69.2878 326.317C63.3653 332.255 57.7642 338.521 52.1685 344.78L52.1525 344.798L52.1365 344.816L52.1207 344.834C51.437 345.599 50.7534 346.363 50.0693 347.127C34.3622 364.672 15.8065 376.147 -8.71418 375.425C-13.3927 375.288 -17.9989 374.946 -22.3587 373.241C-49.7064 362.543 -69.8868 344.652 -78.8528 315.936C-81.271 308.189 -79.392 300.365 -77.5646 292.756C-77.4241 292.171 -77.2839 291.587 -77.146 291.005C-74.3483 279.178 -68.3657 269.172 -59.8279 260.279C-54.9065 255.152 -50.0088 250.002 -45.1118 244.853L-45.1071 244.848C-27.7265 226.572 -10.3477 208.298 8.09951 191.071C10.5531 188.779 9.49155 187.796 7.6264 186.116C6.25307 184.88 4.87824 183.646 3.50342 182.411L3.48527 182.395L3.46706 182.378C-5.38018 174.434 -14.227 166.49 -22.6793 158.11C-39.192 141.738 -54.3849 124.246 -68.2895 105.62C-74.36 97.4887 -78.2369 88.4171 -79.5253 78.3934C-80.626 69.8242 -77.4451 62.0235 -73.7422 54.5981C-64.0332 35.1215 -51.1805 18.3352 -31.6845 7.57636C-12.2568 -3.14531 15.2864 -3.44052 34.3856 12.8825C56.3803 31.6825 76.4688 52.2911 96.0978 73.4314C96.9167 74.3137 97.745 75.1896 98.5733 76.0655L98.5749 76.0672C101.167 78.8084 103.761 81.5516 106.082 84.5069C108.309 87.3418 109.791 86.7533 111.975 84.6125C118.138 78.5738 124.342 72.5754 130.545 66.5777L130.55 66.5725C135.192 62.0843 139.834 57.5961 144.459 53.0907C148.386 49.2652 152.275 45.3944 156.161 41.5249C163.793 33.9271 171.424 26.33 179.363 19.0683C200.466 -0.236137 239.294 -5.46403 265.064 17.0409C275.78 26.3979 285.846 36.4823 291.305 49.64C300.844 72.6278 298.494 93.9676 280.892 112.598C276.374 117.38 271.867 122.172 267.359 126.964C248.923 146.564 230.488 166.164 211.326 185.065C208.478 187.876 209.164 189.231 211.569 191.7C216.709 196.981 221.887 202.226 227.065 207.471C242.038 222.634 257.01 237.798 271.054 253.844C276.616 260.198 282.2 266.588 287.162 273.405C298.844 289.454 299.569 307.296 292.253 324.849C281.944 349.585 265.381 368.414 237.732 374.653C235.083 375.246 232.417 375.235 229.757 375.223C228.29 375.217 226.825 375.211 225.366 375.306ZM-43.7082 92.5423C-41.1901 92.9842 -40.9105 90.8375 -40.8968 89.2539C-40.9946 85.5431 -44.2068 81.5352 -46.6976 81.8637C-48.7054 82.1256 -50.3066 83.2967 -49.8139 85.5177C-49.071 88.8687 -47.417 91.8893 -43.7082 92.5423ZM-16.7945 88.0026C-14.4856 88.0065 -14.1513 85.9889 -14.03 83.9008C-14.5794 81.0112 -16.2608 78.9584 -19.4789 78.7961C-21.911 78.6749 -23.2287 80.3641 -22.8143 82.5909C-22.2277 85.7386 -20.2159 87.9987 -16.7945 88.0026ZM190.313 293.648C190.767 296.405 191.316 299.586 195.084 299.527C197.34 299.491 197.584 297.761 197.839 295.943C197.892 295.565 197.946 295.184 198.018 294.813C197.41 292.256 196.208 289.875 193.035 289.777C190.657 289.703 190 291.752 190.313 293.648ZM221.209 241.854C223.704 241.827 223.78 239.799 223.849 237.641C223.634 235.316 222.797 232.702 219.968 232.46C217.673 232.262 215.989 234.182 216.329 236.696C216.697 239.424 217.896 241.891 221.209 241.854ZM27.4724 213.976C24.4323 213.971 23.6366 215.971 23.6366 218.565C23.615 220.958 24.3267 222.942 27.0697 223.032C30.1841 223.136 30.7531 220.823 30.8352 218.366C30.9134 216.037 30.4011 213.982 27.4724 213.976ZM52.8006 247.326C52.4525 249.348 53.4907 251.676 55.7527 251.6C58.9909 251.49 59.3871 248.656 59.7015 246.406L59.7274 246.222C59.7372 243.748 59.4596 241.727 56.6814 241.915C53.6435 242.121 53.2423 244.605 52.8946 246.758C52.8839 246.824 52.8731 246.89 52.8625 246.956C52.8421 247.081 52.8216 247.204 52.8006 247.326ZM224.41 266.49C224.521 263.819 223.147 261.772 220.181 260.828C218.535 261.42 216.896 262.281 216.871 264.443C216.834 267.466 218.351 269.499 221.413 270.019C224.189 270.49 224.343 268.074 224.41 266.49ZM30.6964 307.375C33.5449 307.662 34.7023 305.678 34.9057 303.079C35.064 300.708 34.0591 299.062 31.6465 299.075C29.1147 299.091 27.1674 300.485 26.8527 303.136C26.5399 305.781 28.4578 307.15 30.6964 307.375ZM-28.9239 273.765C-29.0705 276.191 -27.8134 278.046 -25.2659 278.054C-22.5209 278.062 -21.8529 275.812 -21.2302 273.716L-21.2293 273.712C-21.2226 273.69 -21.2159 273.667 -21.2092 273.645C-21.1799 273.546 -21.1506 273.448 -21.1212 273.35C-21.5044 271.231 -22.4037 269.26 -24.6872 269.254C-27.352 269.247 -28.7714 271.231 -28.9239 273.765ZM-26.9023 302.833C-27.0803 305.197 -25.3832 306.264 -23.5005 306.571C-20.2766 306.718 -19.5297 304.606 -19.387 302.428C-19.2462 300.264 -19.7506 297.687 -22.5132 297.75C-25.3578 297.814 -26.7068 300.219 -26.9023 302.833ZM133.309 270.777C133.387 273.685 134.902 276.058 137.876 276.299C139.963 276.468 140.078 274.789 140.199 273.03C140.225 272.662 140.25 272.29 140.294 271.931C140.235 271.677 140.18 271.411 140.125 271.141C139.73 269.215 139.283 267.031 136.48 266.777C133.821 266.535 133.254 268.746 133.309 270.777ZM224.433 295.222C224.32 292.78 223.282 290.713 220.513 290.539C218.161 290.553 216.617 291.531 216.959 293.795C217.336 296.291 218.363 298.809 221.401 298.97C223.72 299.093 224.519 297.087 224.433 295.222ZM183.165 90.2118C183.322 92.7163 184.544 95.3009 187.4 95.4554C189.663 95.5771 190.17 93.7129 190.638 91.9912C190.733 91.6389 190.828 91.2926 190.935 90.9704C190.757 88.2431 188.994 87.0681 186.722 86.9429C184.714 86.8315 183.042 88.2215 183.165 90.2118ZM188.876 265.44C189.025 268.22 190.595 270.261 193.267 270.605C195.423 270.883 195.91 269.194 196.36 267.634C196.458 267.296 196.554 266.963 196.665 266.658C196.595 264.064 195.414 262.326 192.888 262.271C190.947 262.228 188.726 262.623 188.876 265.44ZM-16.1904 61.7693C-14.0183 62.2581 -13.9401 60.4985 -13.944 58.3929C-14.1513 55.9803 -14.8923 53.3527 -18.386 52.8326C-20.6656 52.4924 -21.1974 53.9255 -21.1075 55.8454C-20.9589 59.0635 -19.2091 61.0889 -16.1904 61.7693ZM-16.1435 116.082C-14.208 116.34 -13.9284 114.562 -13.9499 112.224C-14.3898 109.894 -16.1161 107.811 -19.1582 107.289C-20.9002 106.99 -22.0811 108.486 -21.7917 110.054C-21.2228 113.131 -19.4671 115.636 -16.1435 116.082ZM-0.0179825 273.896C-0.506752 276.13 0.623291 278.127 2.68786 278.408C5.2497 278.758 5.75187 277 6.24956 275.258C6.42793 274.634 6.60574 274.012 6.87758 273.489C6.86131 273.231 6.85829 272.964 6.85527 272.697C6.83907 271.263 6.82286 269.829 4.75436 269.829C2.16583 269.829 0.521622 271.428 -0.0179825 273.896ZM56.7674 276.621C56.7928 278.799 57.2581 281.745 60.2924 281.558C62.5916 281.415 62.6258 279.682 62.6601 277.947C62.6708 277.404 62.6816 276.861 62.7617 276.367C62.7187 276.04 62.7 275.685 62.681 275.322C62.5959 273.707 62.5038 271.956 60.2201 271.982C57.6531 272.007 56.742 274.531 56.7674 276.621ZM222.371 324.808C224.201 324.837 224.672 322.798 224.772 320.982L224.75 320.906C224.141 318.735 223.501 316.453 220.521 316.558C218.314 316.634 217.184 318.2 217.434 320.176C217.776 322.888 219.712 324.765 222.371 324.808ZM192.908 233.328C190.47 233.128 189.715 235.197 189.826 237.445C189.846 240.059 191.05 242.288 193.578 242.53C196.089 242.769 196.059 240.841 196.032 239.122C196.026 238.796 196.021 238.477 196.034 238.182C196.132 235.868 195.455 233.535 192.908 233.328ZM217.628 92.1826C217.481 89.5022 215.956 87.6233 213.088 87.0055C211.401 87.3183 209.807 88.1258 209.966 90.075C210.187 92.7769 211.649 94.6538 214.673 94.7535C216.474 94.8122 217.716 93.8112 217.628 92.1826ZM60.8066 299.312C57.6765 299.408 57.4927 301.984 57.4556 304.411L57.4557 304.417C57.4791 306.289 57.5073 308.544 59.9796 308.411C62.9006 308.253 63.2236 305.573 63.4941 303.327L63.5066 303.224C63.7412 301.286 63.139 299.24 60.8066 299.312ZM25.8986 247.883C25.8262 249.833 26.9563 251.283 29.0736 251.457C31.5527 250.81 32.7922 249.25 32.7023 246.796C32.6221 244.548 31.4745 242.79 29.1264 243.041C26.5144 243.318 25.9768 245.774 25.8986 247.883ZM-1.84597 247.469C-1.69738 249.619 -0.309265 251.068 2.4865 251.021C4.25195 250.791 5.51882 249.434 5.50513 247.461C5.48949 244.953 3.63999 243.486 1.33886 243.371C-1.2223 243.242 -1.98478 245.447 -1.84597 247.469ZM67.4519 114.052C69.1294 114.263 70.0639 112.951 70.1891 111.27C69.4539 108.382 67.6768 106.633 64.748 106.249C62.967 106.017 62.3961 107.194 62.5701 108.705C62.9064 111.622 64.49 113.679 67.4519 114.052ZM215.806 122.068C217.684 122.091 218.582 120.566 218.74 118.539C218.007 116.541 216.91 114.621 214.363 114.678C212.363 114.723 210.761 115.976 210.943 118.111C211.178 120.856 213.348 122.037 215.806 122.068ZM1.90581 329.882C1.636 331.665 2.22059 333.297 4.29298 333.448C7.06838 333.65 7.64439 331.756 8.22968 329.831C8.37251 329.361 8.51588 328.89 8.69191 328.447C8.51595 326.804 8.07411 324.965 6.04669 325.125C3.40733 325.336 2.27141 327.485 1.90581 329.882ZM167.978 268.085C168.049 265.665 166.794 264.105 164.158 263.772C162.189 264.056 160.745 264.996 161.081 267.262C161.409 269.462 162.434 271.47 164.926 271.685C167.3 271.888 167.926 269.939 167.978 268.085ZM244.33 292.665C244.528 294.86 245.273 297.238 247.791 297.372C250.215 297.501 250.47 295.398 250.68 293.675C250.695 293.544 250.711 293.415 250.727 293.29C250.719 290.588 249.492 288.87 247.003 288.813C244.645 288.76 244.16 290.768 244.33 292.665ZM6.76418 54.6C6.91277 57.2374 8.56677 59.1241 10.8679 59.5562C12.8359 59.9265 12.8538 58.5822 12.8709 57.2913C12.8766 56.8651 12.8822 56.4446 12.9579 56.0937C12.9306 55.868 12.9065 55.6393 12.8823 55.4101C12.6572 53.2748 12.4276 51.0966 9.58148 50.8971C7.12785 50.727 6.65079 52.5961 6.76418 54.6ZM189.932 326.341C191.871 326.284 192.505 324.568 192.694 322.765C192.62 322.528 192.549 322.285 192.477 322.04C191.885 320.028 191.254 317.886 188.726 317.811C186.98 317.758 185.789 319.602 186.204 321.381C186.275 321.687 186.336 322.012 186.398 322.343C186.759 324.272 187.16 326.421 189.932 326.341ZM190.872 117.9C190.996 115.483 189.377 114.461 187.287 114.128C185.187 114.384 183.539 115.37 183.513 117.432C183.488 119.671 185.164 121.094 187.31 121.21C189.33 121.317 190.765 119.988 190.872 117.9ZM11.9413 139.943C11.9061 137.177 10.3811 135.795 7.96071 135.378C6.01149 135.413 4.88539 136.264 4.93036 138.045C5.00269 140.964 6.86 142.598 9.53651 142.929C11.3645 143.155 11.9628 141.627 11.9413 139.943ZM246.068 91.0662C246.135 89.2695 245.028 88.0202 242.993 87.9127C240.934 88.5285 239.558 89.7446 239.646 92.0907C239.724 94.1611 240.717 95.6079 242.897 95.6216C245.901 95.6406 245.989 93.2256 246.063 91.216L246.068 91.0662ZM165.271 300.522C167.245 300.905 167.648 299.329 167.798 297.689C167.627 297.181 167.51 296.624 167.391 296.063C167.003 294.223 166.604 292.333 164.281 291.959C162.336 291.646 161.507 293.626 161.677 295.325C161.908 297.605 162.557 299.996 165.271 300.522ZM211.909 39.2546C213.944 39.4188 214.529 37.7609 214.672 36.0346C214.553 35.7292 214.444 35.4126 214.335 35.0957C213.735 33.345 213.132 31.5882 210.773 31.704C208.971 31.794 207.778 33.1097 207.932 35.0316C208.122 37.4129 209.543 39.063 211.909 39.2546ZM38.2997 140.002C40.2352 140.264 40.8374 138.888 40.8081 137.173C40.7885 134.536 39.1697 133.235 36.8334 132.923C35.2361 132.71 33.67 133.484 33.8714 135.363C34.1412 137.879 35.7112 139.654 38.2997 140.002ZM1.03777 302.381C0.801201 304.305 1.94492 305.459 4.04664 305.588C6.09947 305.087 7.78866 303.986 7.61075 301.631C7.48563 299.961 6.50809 298.195 4.56474 298.25C2.17562 298.317 1.28606 300.37 1.03777 302.381ZM186.671 65.8534C188.399 66.0333 189.383 65.0362 189.768 63.3509C189.418 61.0029 187.91 59.5503 185.699 59.085C183.756 58.6764 182.362 59.9882 182.51 61.7928C182.696 64.0548 184.272 65.6052 186.671 65.8534ZM184.927 145.713C185.107 148.016 186.771 148.6 188.601 148.823C190.663 148.417 192.204 147.594 191.987 145.249C191.772 142.919 190.106 142.356 188.122 142.327C185.85 142.291 184.751 143.455 184.927 145.713ZM33.6485 109.405C33.9183 111.817 34.8274 113.825 37.5196 114.558C39.2713 114.134 39.9595 112.901 39.7034 111.272C39.3261 108.893 38.4619 106.719 35.5352 106.64C33.6681 106.59 33.4921 108.021 33.6485 109.405ZM32.1529 278.58C34.237 278.611 34.9037 277.079 34.8763 275.196C34.8196 272.766 33.4237 271.485 31.1519 271.43C29.1499 271.382 28.0511 272.736 28.3542 274.676C28.6767 276.742 29.7775 278.545 32.1529 278.58ZM9.77305 86.6673C11.7848 86.8296 12.7643 85.6839 12.8367 83.2381C12.2971 81.5078 11.4036 79.6778 8.74467 79.6485C7.1591 79.6329 6.09947 80.5283 6.30866 82.0318C6.59801 84.0983 6.97533 86.4425 9.77305 86.6673ZM37.5333 87.6996C39.5666 87.9831 40.0573 86.6341 40.1727 84.9898C40.1033 84.7032 40.0415 84.4067 39.9793 84.108C39.591 82.2428 39.1855 80.2957 36.806 80.1862C35.0445 80.1041 33.6876 81.6936 33.9144 83.5372C34.1608 85.5373 35.1735 87.3692 37.5333 87.6996ZM246.33 119.425C246.489 117.552 245.967 115.839 243.646 115.528C241.64 115.714 240.047 116.625 239.826 118.649C239.572 120.971 241.096 122.269 243.3 122.498C245.417 122.717 246.19 121.116 246.33 119.425ZM41.3457 54.2911C40.9644 51.6283 39.0504 50.0994 36.6867 49.0906C34.935 49.3878 34.5401 50.6703 34.7864 52.0056C35.2282 54.3752 36.4228 56.3889 39.0309 56.7741C40.6438 57.0126 41.5471 55.691 41.3457 54.2911ZM213.235 65.7909C215.055 65.7694 215.837 64.6335 215.833 62.7762C215.544 60.5611 214.146 59.2629 211.901 59.2942C210.245 59.3196 209.037 60.5513 209.235 62.2287C209.489 64.4028 210.885 65.8202 213.235 65.7909ZM241.863 66.354C243.398 66.4576 244.67 65.5993 244.653 63.5387C244.236 61.6344 243.226 60.0625 240.926 59.9002C239.089 59.7673 238.16 61.1026 238.156 62.6217C238.152 64.8759 239.734 66.2093 241.863 66.354ZM155.614 87.1658C156.037 89.2323 156.643 91.7603 159.005 92.0789C160.959 92.3419 161.089 90.5451 161.189 89.152L161.198 89.0322C161.207 88.9143 161.215 88.8 161.226 88.6908C161.239 86.2137 160.381 84.6477 157.855 84.6535C156.258 84.6575 155.304 85.6487 155.614 87.1658ZM163.139 239.224C163.466 241.201 164.019 243.295 166.35 243.701C168.035 243.996 168.392 242.478 168.718 241.092L168.727 241.054C168.209 239.074 167.145 237.437 164.971 237.033C163.392 236.739 162.93 237.963 163.139 239.224ZM9.82587 114.418C11.4935 114.375 11.8161 112.967 11.8201 111.299C11.5874 109.595 10.8464 107.856 8.65477 107.855C7.02032 107.853 6.71923 109.409 6.74464 110.793C6.78179 112.813 7.51105 114.476 9.82587 114.418ZM159.857 119.591C161.333 119.829 162.397 119.284 162.741 117.599C162.532 116.144 161.986 114.832 160.256 114.525C158.754 114.255 157.546 114.838 157.47 116.426C157.395 117.966 158.103 119.307 159.857 119.591Z" fill="#37B9C5"/>
<path d="M98.809 143.274C104.963 149.06 107.778 157.198 114.126 163.185C119.482 156.2 127.747 154.167 136.696 153.85C142.89 153.631 146.68 156.297 147.589 162.65C148.816 171.233 146.725 179.343 143.211 186.896C136.638 201.018 127.115 213.172 116.263 224.478C111.753 229.176 105.738 230.766 100.736 234.28C99.1625 235.385 97.6828 233.628 96.8167 232.168C92.7007 225.224 88.1253 218.488 84.6709 211.236C80.56 202.604 75.3734 194.481 72.5453 185.204C68.8208 172.975 68.5708 160.953 73.2094 149.005C75.8179 142.284 80.7847 138.553 88.3803 138.844C90.6251 143.135 94.1325 144.541 98.809 143.274Z" fill="#FF5A5A"/>
<path d="M88.3803 138.844C90.6251 143.135 94.1325 144.541 98.809 143.274C96.0743 140.104 91.9331 140.153 88.3803 138.844Z" fill="#FF5A5A"/>
</g>
</svg>
