<svg width="375" height="377" viewBox="0 0 375 377" fill="none" xmlns="http://www.w3.org/2000/svg">
<g opacity="0.3">
<path fill-rule="evenodd" clip-rule="evenodd" d="M303.366 375.306C281.422 376.581 265.238 365.19 250.213 351.235C232.367 334.656 215.504 317.101 198.643 299.547C195.866 296.656 193.09 293.766 190.309 290.88C187.664 288.135 186.284 287.99 183.5 290.786C177.461 296.85 171.318 302.81 165.176 308.77C159.181 314.587 153.186 320.404 147.288 326.317C141.365 332.255 135.764 338.521 130.169 344.78L130.152 344.798L130.137 344.816L130.121 344.834C129.437 345.599 128.753 346.363 128.069 347.127C112.362 364.672 93.8065 376.147 69.2858 375.425C64.6073 375.288 60.0011 374.946 55.6413 373.241C28.2936 362.543 8.11324 344.652 -0.852765 315.936C-3.271 308.189 -1.39196 300.365 0.435405 292.756C0.57591 292.171 0.716108 291.587 0.854025 291.005C3.65175 279.178 9.6343 269.172 18.1721 260.279C23.0935 255.152 27.9912 250.002 32.8882 244.853L32.8929 244.848C50.2735 226.572 67.6523 208.298 86.0995 191.071C88.5531 188.779 87.4916 187.796 85.6264 186.116C84.2531 184.88 82.8782 183.646 81.5034 182.411L81.4853 182.395L81.4671 182.378C72.6198 174.434 63.773 166.49 55.3207 158.11C38.808 141.738 23.6151 124.246 9.71055 105.62C3.64001 97.4887 -0.236902 88.4171 -1.5253 78.3934C-2.62601 69.8242 0.554892 62.0235 4.25782 54.5981C13.9668 35.1215 26.8195 18.3352 46.3155 7.57636C65.7432 -3.14531 93.2864 -3.44052 112.386 12.8825C134.38 31.6825 154.469 52.2911 174.098 73.4314C174.917 74.3137 175.745 75.1896 176.573 76.0655L176.575 76.0672C179.167 78.8084 181.761 81.5516 184.082 84.5069C186.309 87.3418 187.791 86.7533 189.975 84.6125C196.138 78.5738 202.342 72.5754 208.545 66.5777L208.55 66.5725C213.192 62.0843 217.834 57.5961 222.459 53.0907C226.386 49.2652 230.275 45.3944 234.161 41.5249C241.793 33.9271 249.424 26.33 257.363 19.0683C278.466 -0.236137 317.294 -5.46403 343.064 17.0409C353.78 26.3979 363.846 36.4823 369.305 49.64C378.844 72.6278 376.494 93.9676 358.892 112.598C354.374 117.38 349.867 122.172 345.359 126.964C326.923 146.564 308.488 166.164 289.326 185.065C286.478 187.876 287.164 189.231 289.569 191.7C294.709 196.981 299.887 202.226 305.065 207.471C320.038 222.634 335.01 237.798 349.054 253.844C354.616 260.198 360.2 266.588 365.162 273.405C376.844 289.454 377.569 307.296 370.253 324.849C359.944 349.585 343.381 368.414 315.732 374.653C313.083 375.246 310.417 375.235 307.757 375.223C306.29 375.217 304.825 375.211 303.366 375.306ZM34.2918 92.5423C36.8099 92.9842 37.0895 90.8375 37.1032 89.2539C37.0054 85.5431 33.7932 81.5352 31.3024 81.8637C29.2946 82.1256 27.6934 83.2967 28.1861 85.5177C28.929 88.8687 30.583 91.8893 34.2918 92.5423ZM61.2055 88.0026C63.5144 88.0065 63.8487 85.9889 63.97 83.9008C63.4206 81.0112 61.7392 78.9584 58.5211 78.7961C56.089 78.6749 54.7713 80.3641 55.1857 82.5909C55.7723 85.7386 57.7841 87.9987 61.2055 88.0026ZM268.313 293.648C268.767 296.405 269.316 299.586 273.084 299.527C275.34 299.491 275.584 297.761 275.839 295.943C275.892 295.565 275.946 295.184 276.018 294.813C275.41 292.256 274.208 289.875 271.035 289.777C268.657 289.703 268 291.752 268.313 293.648ZM299.209 241.854C301.704 241.827 301.78 239.799 301.849 237.641C301.634 235.316 300.797 232.702 297.968 232.46C295.673 232.262 293.989 234.182 294.329 236.696C294.697 239.424 295.896 241.891 299.209 241.854ZM105.472 213.976C102.432 213.971 101.637 215.971 101.637 218.565C101.615 220.958 102.327 222.942 105.07 223.032C108.184 223.136 108.753 220.823 108.835 218.366C108.913 216.037 108.401 213.982 105.472 213.976ZM130.801 247.326C130.453 249.348 131.491 251.676 133.753 251.6C136.991 251.49 137.387 248.656 137.702 246.406L137.727 246.222C137.737 243.748 137.46 241.727 134.681 241.915C131.644 242.121 131.242 244.605 130.895 246.758C130.884 246.824 130.873 246.89 130.862 246.956C130.842 247.081 130.822 247.204 130.801 247.326ZM302.41 266.49C302.521 263.819 301.147 261.772 298.181 260.828C296.535 261.42 294.896 262.281 294.871 264.443C294.834 267.466 296.351 269.499 299.413 270.019C302.189 270.49 302.343 268.074 302.41 266.49ZM108.696 307.375C111.545 307.662 112.702 305.678 112.906 303.079C113.064 300.708 112.059 299.062 109.647 299.075C107.115 299.091 105.167 300.485 104.853 303.136C104.54 305.781 106.458 307.15 108.696 307.375ZM49.0761 273.765C48.9295 276.191 50.1866 278.046 52.7341 278.054C55.4791 278.062 56.1471 275.812 56.7698 273.716L56.7707 273.712C56.7774 273.69 56.7841 273.667 56.7908 273.645C56.8201 273.546 56.8494 273.448 56.8788 273.35C56.4956 271.231 55.5963 269.26 53.3128 269.254C50.648 269.247 49.2286 271.231 49.0761 273.765ZM51.0977 302.833C50.9197 305.197 52.6168 306.264 54.4995 306.571C57.7234 306.718 58.4703 304.606 58.613 302.428C58.7538 300.264 58.2494 297.687 55.4868 297.75C52.6422 297.814 51.2932 300.219 51.0977 302.833ZM211.309 270.777C211.387 273.685 212.902 276.058 215.876 276.299C217.963 276.468 218.078 274.789 218.199 273.03C218.225 272.662 218.25 272.29 218.294 271.931C218.235 271.677 218.18 271.411 218.125 271.141C217.73 269.215 217.283 267.031 214.48 266.777C211.821 266.535 211.254 268.746 211.309 270.777ZM302.433 295.222C302.32 292.78 301.282 290.713 298.513 290.539C296.161 290.553 294.617 291.531 294.959 293.795C295.336 296.291 296.363 298.809 299.401 298.97C301.72 299.093 302.519 297.087 302.433 295.222ZM261.165 90.2118C261.322 92.7163 262.544 95.3009 265.4 95.4554C267.663 95.5771 268.17 93.7129 268.638 91.9912C268.733 91.6389 268.828 91.2926 268.935 90.9704C268.757 88.2431 266.994 87.0681 264.722 86.9429C262.714 86.8315 261.042 88.2215 261.165 90.2118ZM266.876 265.44C267.025 268.22 268.595 270.261 271.267 270.605C273.423 270.883 273.91 269.194 274.36 267.634C274.458 267.296 274.554 266.963 274.665 266.658C274.595 264.064 273.414 262.326 270.888 262.271C268.947 262.228 266.726 262.623 266.876 265.44ZM61.8096 61.7693C63.9817 62.2581 64.0599 60.4985 64.056 58.3929C63.8487 55.9803 63.1077 53.3527 59.614 52.8326C57.3344 52.4924 56.8026 53.9255 56.8925 55.8454C57.0411 59.0635 58.7909 61.0889 61.8096 61.7693ZM61.8565 116.082C63.792 116.34 64.0716 114.562 64.0501 112.224C63.6102 109.894 61.8839 107.811 58.8418 107.289C57.0998 106.99 55.9189 108.486 56.2083 110.054C56.7772 113.131 58.5329 115.636 61.8565 116.082ZM77.982 273.896C77.4932 276.13 78.6233 278.127 80.6879 278.408C83.2497 278.758 83.7519 277 84.2496 275.258C84.4279 274.634 84.6057 274.012 84.8776 273.489C84.8613 273.231 84.8583 272.964 84.8553 272.697C84.8391 271.263 84.8229 269.829 82.7544 269.829C80.1658 269.829 78.5216 271.428 77.982 273.896ZM134.767 276.621C134.793 278.799 135.258 281.745 138.292 281.558C140.592 281.415 140.626 279.682 140.66 277.947C140.671 277.404 140.682 276.861 140.762 276.367C140.719 276.04 140.7 275.685 140.681 275.322C140.596 273.707 140.504 271.956 138.22 271.982C135.653 272.007 134.742 274.531 134.767 276.621ZM300.371 324.808C302.201 324.837 302.672 322.798 302.772 320.982L302.75 320.906C302.141 318.735 301.501 316.453 298.521 316.558C296.314 316.634 295.184 318.2 295.434 320.176C295.776 322.888 297.712 324.765 300.371 324.808ZM270.908 233.328C268.47 233.128 267.715 235.197 267.826 237.445C267.846 240.059 269.05 242.288 271.578 242.53C274.089 242.769 274.059 240.841 274.032 239.122C274.026 238.796 274.021 238.477 274.034 238.182C274.132 235.868 273.455 233.535 270.908 233.328ZM295.628 92.1826C295.481 89.5022 293.956 87.6233 291.088 87.0055C289.401 87.3183 287.807 88.1258 287.966 90.075C288.187 92.7769 289.649 94.6538 292.673 94.7535C294.474 94.8122 295.716 93.8112 295.628 92.1826ZM138.807 299.312C135.677 299.408 135.493 301.984 135.456 304.411L135.456 304.417C135.479 306.289 135.507 308.544 137.98 308.411C140.901 308.253 141.224 305.573 141.494 303.327L141.507 303.224C141.741 301.286 141.139 299.24 138.807 299.312ZM103.899 247.883C103.826 249.833 104.956 251.283 107.074 251.457C109.553 250.81 110.792 249.25 110.702 246.796C110.622 244.548 109.474 242.79 107.126 243.041C104.514 243.318 103.977 245.774 103.899 247.883ZM76.154 247.469C76.3026 249.619 77.6907 251.068 80.4865 251.021C82.2519 250.791 83.5188 249.434 83.5051 247.461C83.4895 244.953 81.64 243.486 79.3389 243.371C76.7777 243.242 76.0152 245.447 76.154 247.469ZM145.452 114.052C147.129 114.263 148.064 112.951 148.189 111.27C147.454 108.382 145.677 106.633 142.748 106.249C140.967 106.017 140.396 107.194 140.57 108.705C140.906 111.622 142.49 113.679 145.452 114.052ZM293.806 122.068C295.684 122.091 296.582 120.566 296.74 118.539C296.007 116.541 294.91 114.621 292.363 114.678C290.363 114.723 288.761 115.976 288.943 118.111C289.178 120.856 291.348 122.037 293.806 122.068ZM79.9058 329.882C79.636 331.665 80.2206 333.297 82.293 333.448C85.0684 333.65 85.6444 331.756 86.2297 329.831C86.3725 329.361 86.5159 328.89 86.6919 328.447C86.516 326.804 86.0741 324.965 84.0467 325.125C81.4073 325.336 80.2714 327.485 79.9058 329.882ZM245.978 268.085C246.049 265.665 244.794 264.105 242.158 263.772C240.189 264.056 238.745 264.996 239.081 267.262C239.409 269.462 240.434 271.47 242.926 271.685C245.3 271.888 245.926 269.939 245.978 268.085ZM322.33 292.665C322.528 294.86 323.273 297.238 325.791 297.372C328.215 297.501 328.47 295.398 328.68 293.675C328.695 293.544 328.711 293.415 328.727 293.29C328.719 290.588 327.492 288.87 325.003 288.813C322.645 288.76 322.16 290.768 322.33 292.665ZM84.7642 54.6C84.9128 57.2374 86.5668 59.1241 88.8679 59.5562C90.8359 59.9265 90.8538 58.5822 90.8709 57.2913C90.8766 56.8651 90.8822 56.4446 90.9579 56.0937C90.9306 55.868 90.9065 55.6393 90.8823 55.4101C90.6572 53.2748 90.4276 51.0966 87.5815 50.8971C85.1279 50.727 84.6508 52.5961 84.7642 54.6ZM267.932 326.341C269.871 326.284 270.505 324.568 270.694 322.765C270.62 322.528 270.549 322.285 270.477 322.04C269.885 320.028 269.254 317.886 266.726 317.811C264.98 317.758 263.789 319.602 264.204 321.381C264.275 321.687 264.336 322.012 264.398 322.343C264.759 324.272 265.16 326.421 267.932 326.341ZM268.872 117.9C268.996 115.483 267.377 114.461 265.287 114.128C263.187 114.384 261.539 115.37 261.513 117.432C261.488 119.671 263.164 121.094 265.31 121.21C267.33 121.317 268.765 119.988 268.872 117.9ZM89.9413 139.943C89.9061 137.177 88.3811 135.795 85.9607 135.378C84.0115 135.413 82.8854 136.264 82.9304 138.045C83.0027 140.964 84.86 142.598 87.5365 142.929C89.3645 143.155 89.9628 141.627 89.9413 139.943ZM324.068 91.0662C324.135 89.2695 323.028 88.0202 320.993 87.9127C318.934 88.5285 317.558 89.7446 317.646 92.0907C317.724 94.1611 318.717 95.6079 320.897 95.6216C323.901 95.6406 323.989 93.2256 324.063 91.216L324.068 91.0662ZM243.271 300.522C245.245 300.905 245.648 299.329 245.798 297.689C245.627 297.181 245.51 296.624 245.391 296.063C245.003 294.223 244.604 292.333 242.281 291.959C240.336 291.646 239.507 293.626 239.677 295.325C239.908 297.605 240.557 299.996 243.271 300.522ZM289.909 39.2546C291.944 39.4188 292.529 37.7609 292.672 36.0346C292.553 35.7292 292.444 35.4126 292.335 35.0957C291.735 33.345 291.132 31.5882 288.773 31.704C286.971 31.794 285.778 33.1097 285.932 35.0316C286.122 37.4129 287.543 39.063 289.909 39.2546ZM116.3 140.002C118.235 140.264 118.837 138.888 118.808 137.173C118.789 134.536 117.17 133.235 114.833 132.923C113.236 132.71 111.67 133.484 111.871 135.363C112.141 137.879 113.711 139.654 116.3 140.002ZM79.0378 302.381C78.8012 304.305 79.9449 305.459 82.0466 305.588C84.0995 305.087 85.7887 303.986 85.6107 301.631C85.4856 299.961 84.5081 298.195 82.5647 298.25C80.1756 298.317 79.2861 300.37 79.0378 302.381ZM264.671 65.8534C266.399 66.0333 267.383 65.0362 267.768 63.3509C267.418 61.0029 265.91 59.5503 263.699 59.085C261.756 58.6764 260.362 59.9882 260.51 61.7928C260.696 64.0548 262.272 65.6052 264.671 65.8534ZM262.927 145.713C263.107 148.016 264.771 148.6 266.601 148.823C268.663 148.417 270.204 147.594 269.987 145.249C269.772 142.919 268.106 142.356 266.122 142.327C263.85 142.291 262.751 143.455 262.927 145.713ZM111.649 109.405C111.918 111.817 112.827 113.825 115.52 114.558C117.271 114.134 117.96 112.901 117.703 111.272C117.326 108.893 116.462 106.719 113.535 106.64C111.668 106.59 111.492 108.021 111.649 109.405ZM110.153 278.58C112.237 278.611 112.904 277.079 112.876 275.196C112.82 272.766 111.424 271.485 109.152 271.43C107.15 271.382 106.051 272.736 106.354 274.676C106.677 276.742 107.777 278.545 110.153 278.58ZM87.773 86.6673C89.7848 86.8296 90.7643 85.6839 90.8367 83.2381C90.2971 81.5078 89.4036 79.6778 86.7447 79.6485C85.1591 79.6329 84.0995 80.5283 84.3087 82.0318C84.598 84.0983 84.9753 86.4425 87.773 86.6673ZM115.533 87.6996C117.567 87.9831 118.057 86.6341 118.173 84.9898C118.103 84.7032 118.042 84.4067 117.979 84.108C117.591 82.2428 117.186 80.2957 114.806 80.1862C113.044 80.1041 111.688 81.6936 111.914 83.5372C112.161 85.5373 113.173 87.3692 115.533 87.6996ZM324.33 119.425C324.489 117.552 323.967 115.839 321.646 115.528C319.64 115.714 318.047 116.625 317.826 118.649C317.572 120.971 319.096 122.269 321.3 122.498C323.417 122.717 324.19 121.116 324.33 119.425ZM119.346 54.2911C118.964 51.6283 117.05 50.0994 114.687 49.0906C112.935 49.3878 112.54 50.6703 112.786 52.0056C113.228 54.3752 114.423 56.3889 117.031 56.7741C118.644 57.0126 119.547 55.691 119.346 54.2911ZM291.235 65.7909C293.055 65.7694 293.837 64.6335 293.833 62.7762C293.544 60.5611 292.146 59.2629 289.901 59.2942C288.245 59.3196 287.037 60.5513 287.235 62.2287C287.489 64.4028 288.885 65.8202 291.235 65.7909ZM319.863 66.354C321.398 66.4576 322.67 65.5993 322.653 63.5387C322.236 61.6344 321.226 60.0625 318.926 59.9002C317.089 59.7673 316.16 61.1026 316.156 62.6217C316.152 64.8759 317.734 66.2093 319.863 66.354ZM233.614 87.1658C234.037 89.2323 234.643 91.7603 237.005 92.0789C238.959 92.3419 239.089 90.5451 239.189 89.152L239.198 89.0322C239.207 88.9143 239.215 88.8 239.226 88.6908C239.239 86.2137 238.381 84.6477 235.855 84.6535C234.258 84.6575 233.304 85.6487 233.614 87.1658ZM241.139 239.224C241.466 241.201 242.019 243.295 244.35 243.701C246.035 243.996 246.392 242.478 246.718 241.092L246.727 241.054C246.209 239.074 245.145 237.437 242.971 237.033C241.392 236.739 240.93 237.963 241.139 239.224ZM87.8259 114.418C89.4935 114.375 89.8161 112.967 89.8201 111.299C89.5874 109.595 88.8464 107.856 86.6548 107.855C85.0203 107.853 84.7192 109.409 84.7446 110.793C84.7818 112.813 85.511 114.476 87.8259 114.418ZM237.857 119.591C239.333 119.829 240.397 119.284 240.741 117.599C240.532 116.144 239.986 114.832 238.256 114.525C236.754 114.255 235.546 114.838 235.47 116.426C235.395 117.966 236.103 119.307 237.857 119.591Z" fill="#37B9C5"/>
<path d="M176.809 143.274C182.963 149.06 185.778 157.198 192.126 163.185C197.482 156.2 205.747 154.167 214.696 153.85C220.89 153.631 224.68 156.297 225.589 162.65C226.816 171.233 224.725 179.343 221.211 186.896C214.638 201.018 205.115 213.172 194.263 224.478C189.753 229.176 183.738 230.766 178.736 234.28C177.163 235.385 175.683 233.628 174.817 232.168C170.701 225.224 166.125 218.488 162.671 211.236C158.56 202.604 153.373 194.481 150.545 185.204C146.821 172.975 146.571 160.953 151.209 149.005C153.818 142.284 158.785 138.553 166.38 138.844C168.625 143.135 172.132 144.541 176.809 143.274Z" fill="#FF5A5A"/>
<path d="M166.38 138.844C168.625 143.135 172.132 144.541 176.809 143.274C174.074 140.104 169.933 140.153 166.38 138.844Z" fill="#FF5A5A"/>
</g>
</svg>
