<svg width="24" height="24" viewBox="0 0 24 24" fill="none" xmlns="http://www.w3.org/2000/svg">
<path d="M10.3636 3.00061C8.90721 3.00061 7.48354 3.43248 6.2726 4.2416C5.06167 5.05072 4.11786 6.20076 3.56052 7.54628C3.00319 8.8918 2.85737 10.3724 3.14149 11.8008C3.42562 13.2292 4.12693 14.5412 5.15675 15.571C6.18657 16.6009 7.49863 17.3022 8.92703 17.5863C10.3554 17.8704 11.836 17.7246 13.1815 17.1673C14.527 16.6099 15.6771 15.6661 16.4862 14.4552C17.2953 13.2443 17.7272 11.8206 17.7272 10.3642C17.7271 8.41129 16.9512 6.53841 15.5703 5.15749C14.1894 3.77658 12.3165 3.00073 10.3636 3.00061V3.00061Z" stroke="#adb3bc" stroke-width="2" stroke-miterlimit="10"/>
<path d="M15.8574 15.8573L21.0001 21" stroke="#adb3bc" stroke-width="2" stroke-miterlimit="10" stroke-linecap="round"/>
</svg>
