<svg width="17" height="16" viewBox="0 0 17 16" fill="none" xmlns="http://www.w3.org/2000/svg">
<path fill-rule="evenodd" clip-rule="evenodd" d="M6.90249 2C4.19492 2 2 4.19492 2 6.90249C2 9.61006 4.19492 11.805 6.90249 11.805C8.38283 11.805 9.70992 11.1489 10.6088 10.1116L10.6127 10.1071C11.3556 9.24771 11.805 8.12757 11.805 6.90249C11.805 4.19492 9.61006 2 6.90249 2ZM12.7005 10.6493C13.3993 9.57022 13.805 8.28373 13.805 6.90249C13.805 3.09035 10.7146 0 6.90249 0C3.09035 0 0 3.09035 0 6.90249C0 10.7146 3.09035 13.805 6.90249 13.805C8.61172 13.805 10.1759 13.1837 11.3814 12.1547L15.1412 15.7251C15.5417 16.1054 16.1746 16.0891 16.5549 15.6886C16.9352 15.2881 16.9189 14.6552 16.5184 14.2749L12.7005 10.6493Z" fill="#FFC618"/>
</svg>
